<?xml version="1.0" standalone="no"?>
<!DOCTYPE svg PUBLIC "-//W3C//DTD SVG 20010904//EN"
 "http://www.w3.org/TR/2001/REC-SVG-20010904/DTD/svg10.dtd">
<svg version="1.0" xmlns="http://www.w3.org/2000/svg"
 width="290.000000pt" height="50.000000pt" viewBox="0 0 290.000000 50.000000"
 preserveAspectRatio="xMidYMid meet">

<g transform="translate(0.000000,50.000000) scale(0.100000,-0.100000)"
fill="#000000" stroke="none">
<path d="M113 381 c-67 -41 -51 -110 38 -162 33 -19 44 -31 44 -50 0 -33 -47
-39 -85 -10 l-28 20 -6 -32 c-8 -37 6 -51 60 -61 63 -12 124 34 124 95 0 24
-51 76 -99 101 -21 12 -31 24 -29 35 4 24 55 29 77 9 21 -19 31 -12 31 25 0
21 -7 29 -31 38 -44 15 -59 14 -96 -8z"/>
<path d="M300 240 l0 -150 80 0 c79 0 80 0 80 25 0 23 -3 25 -50 25 l-50 0 0
50 0 50 40 0 c36 0 40 3 40 25 0 23 -4 25 -40 25 -36 0 -40 3 -40 25 0 23 3
25 50 25 47 0 50 2 50 25 0 25 -1 25 -80 25 l-80 0 0 -150z"/>
<path d="M510 240 l0 -150 80 0 c79 0 80 0 80 25 0 23 -3 25 -50 25 l-50 0 0
50 0 50 40 0 c36 0 40 3 40 25 0 23 -4 25 -40 25 -36 0 -40 3 -40 25 0 23 3
25 50 25 47 0 50 2 50 25 0 25 -1 25 -80 25 l-80 0 0 -150z"/>
<path d="M720 240 l0 -150 30 0 30 0 0 82 0 83 83 -83 c45 -45 86 -82 90 -82
4 0 7 68 7 150 l0 150 -30 0 -30 0 0 -82 0 -83 -83 83 c-45 45 -86 82 -90 82
-4 0 -7 -67 -7 -150z"/>
<path d="M1162 247 c-34 -78 -62 -146 -62 -150 0 -4 11 -7 25 -7 17 0 29 8 37
25 10 22 17 25 63 25 46 0 53 -3 63 -25 9 -18 19 -25 41 -25 l30 0 -31 73
c-16 39 -43 103 -59 142 -17 38 -33 73 -38 78 -4 4 -35 -57 -69 -136z m88 -44
c0 -7 -11 -13 -25 -13 -28 0 -30 8 -13 45 l12 26 13 -23 c7 -13 12 -29 13 -35z"/>
<path d="M1400 240 l0 -151 73 3 c66 3 72 5 75 26 3 20 -1 22 -42 22 l-46 0 0
125 0 125 -30 0 -30 0 0 -150z"/>
<path d="M1600 240 l0 -151 28 3 c25 3 27 7 30 56 3 44 6 52 23 52 16 0 68
-66 82 -103 1 -5 17 -7 34 -5 l32 3 -36 59 c-35 57 -36 59 -19 86 23 40 20 84
-8 117 -21 24 -32 28 -95 31 l-71 4 0 -152z m118 88 c21 -21 14 -58 -14 -68
-40 -16 -44 -13 -44 35 0 40 2 45 23 45 13 0 28 -5 35 -12z"/>
<path d="M1860 240 l0 -150 80 0 c79 0 80 0 80 25 0 23 -3 25 -50 25 l-50 0 0
50 0 50 40 0 c36 0 40 3 40 25 0 23 -4 25 -40 25 -36 0 -40 3 -40 25 0 23 3
25 50 25 47 0 50 2 50 25 0 25 -1 25 -80 25 l-80 0 0 -150z"/>
<path d="M2161 368 c-5 -13 -32 -78 -60 -144 -28 -67 -51 -125 -51 -128 0 -3
11 -6 25 -6 17 0 29 8 37 25 10 22 17 25 63 25 46 0 53 -3 63 -25 8 -17 20
-25 37 -25 14 0 25 4 25 8 0 9 -58 152 -98 245 -12 26 -24 47 -27 47 -3 0 -9
-10 -14 -22z m39 -165 c0 -7 -11 -13 -25 -13 -28 0 -30 8 -13 45 l12 26 13
-23 c7 -13 12 -29 13 -35z"/>
<path d="M2345 378 c-3 -8 -4 -75 -3 -149 l3 -134 82 0 c88 0 114 11 157 69
29 38 29 114 0 152 -41 55 -70 69 -155 73 -61 2 -80 0 -84 -11z m164 -66 c73
-54 29 -163 -66 -166 l-38 -1 -3 84 c-2 46 0 91 3 99 7 19 70 10 104 -16z"/>
<path d="M2654 306 c42 -75 46 -89 46 -150 l0 -67 28 3 c26 3 27 5 32 83 5 69
11 89 44 148 l39 68 -33 -3 c-26 -2 -38 -11 -53 -38 -29 -54 -32 -54 -58 -5
-21 39 -28 45 -57 45 l-33 0 45 -84z"/>
</g>
</svg>
